HIERARCHY
ROOT Hips
{
  OFFSET 39.8768 98.8275 4.24869
  CHANNELS 6 Xposition Yposition Zposition Zrotation Xrotation Yrotation
  JOINT spine
  {
    OFFSET 0 8.30104 0.477352
    CHANNELS 3 Zrotation Xrotation Yrotation
    JOINT spine1
    {
      OFFSET 0 10.4565 0
      CHANNELS 3 Zrotation Xrotation Yrotation
      JOINT spine2
      {
        OFFSET 0 10.0192 0
        CHANNELS 3 Zrotation Xrotation Yrotation
        JOINT Neck
        {
          OFFSET 0 25.7235 1.22641
          CHANNELS 3 Zrotation Xrotation Yrotation
          JOINT Head
          {
            OFFSET 0 7.77175 0
            CHANNELS 3 Zrotation Xrotation Yrotation
            End Site
            {
              OFFSET 0 18.812 -6.20394
            }
          }
        }
        JOINT RightShoulder
        {
          OFFSET -4.2188 10.82 -0.587439
          CHANNELS 3 Zrotation Xrotation Yrotation
          JOINT RightArm
          {
            OFFSET 0 14.1914 0
            CHANNELS 3 Zrotation Xrotation Yrotation
            JOINT RightArmRoll
            {
              OFFSET 0 7.16408 0
              CHANNELS 3 Zrotation Xrotation Yrotation
              JOINT RightForeArm
              {
                OFFSET 0 20.8665 0
                CHANNELS 3 Zrotation Xrotation Yrotation
                JOINT RightForeArmRoll
                {
                  OFFSET 0 8.03921 0
                  CHANNELS 3 Zrotation Xrotation Yrotation
                  JOINT RightHand
                  {
                    OFFSET 0 16.133 0
                    CHANNELS 3 Zrotation Xrotation Yrotation
                    End Site
                    {
                      OFFSET 0 0 0
                    }
                  }
                }
              }
            }
          }
        }
        JOINT LeftShoulder
        {
          OFFSET 4.2188 10.82 -0.587439
          CHANNELS 3 Zrotation Xrotation Yrotation
          JOINT LeftArm
          {
            OFFSET 0 14.1914 0
            CHANNELS 3 Zrotation Xrotation Yrotation
            JOINT LeftArmRoll
            {
              OFFSET 0 7.16408 0
              CHANNELS 3 Zrotation Xrotation Yrotation
              JOINT LeftForeArm
              {
                OFFSET 0 20.8665 0
                CHANNELS 3 Zrotation Xrotation Yrotation
                JOINT LeftForeArmRoll
                {
                  OFFSET 0 8.03921 0
                  CHANNELS 3 Zrotation Xrotation Yrotation
                  JOINT LeftHand
                  {
                    OFFSET 0 16.133 0
                    CHANNELS 3 Zrotation Xrotation Yrotation
                    End Site
                    {
                      OFFSET 0 0 0
                    }
                  }
                }
              }
            }
          }
        }
      }
    }
  }
  JOINT RightUpLeg
  {
    OFFSET -7.35773 -1.34921 -1.13182
    CHANNELS 3 Zrotation Xrotation Yrotation
    JOINT RightUpLegRoll
    {
      OFFSET 0 18.9168 0
      CHANNELS 3 Zrotation Xrotation Yrotation
      JOINT RightLeg
      {
        OFFSET 0 -23.4256 0
        CHANNELS 3 Zrotation Xrotation Yrotation
        JOINT RightLegRoll
        {
          OFFSET 0 23.5023 0
          CHANNELS 3 Zrotation Xrotation Yrotation
          JOINT RightFoot
          {
            OFFSET 0 19.5617 0
            CHANNELS 3 Zrotation Xrotation Yrotation
            JOINT RightToeBase
            {
              OFFSET 0 16.3526 0
              CHANNELS 3 Zrotation Xrotation Yrotation
              End Site
              {
                OFFSET 0.00693125 7.91944 -0.912836
              }
            }
          }
        }
      }
    }
  }
  JOINT LeftUpLeg
  {
    OFFSET 7.35773 -1.34921 -1.13182
    CHANNELS 3 Zrotation Xrotation Yrotation
    JOINT LeftUpLegRoll
    {
      OFFSET 0 18.9169 0
      CHANNELS 3 Zrotation Xrotation Yrotation
      JOINT LeftLeg
      {
        OFFSET 0 23.4255 0
        CHANNELS 3 Zrotation Xrotation Yrotation
        JOINT LeftLegRoll
        {
          OFFSET 0 23.7195 0
          CHANNELS 3 Zrotation Xrotation Yrotation
          JOINT LeftFoot
          {
            OFFSET 0 19.3444 0
            CHANNELS 3 Zrotation Xrotation Yrotation
            JOINT LeftToeBase
            {
              OFFSET 0 16.3526 0
              CHANNELS 3 Zrotation Xrotation Yrotation
              End Site
              {
                OFFSET -0.0310629 7.91944 -0.912837
              }
            }
          }
        }
      }
    }
  }
}
MOTION
Frames: 12
Frame Time: 0.00208333
40.1764 98.8952 4.43305 1.2198 -2.51826 1.38695 0.0824609 -1.47353 0.0614312 0.154005 1.06906 0.114979 0.152737 2.71413 0.112597 -3.32792 23.6627 0.287881 0.542871 -6.88144 -0.805039 72.35 -1.26948 -2.18125 97.9779 23.2605 31.1993 -1.29356e-006 1.38983e-006 2.77583e-006 1.38268 0.00666577 0.6901 2.85801e-006 3.03382e-006 -3.08479 8.03009 -4.95138 0.697641 -67.3527 1.48996 0.266278 -100.632 12.1945 -21.4725 -5.6188e-006 -3.21193e-006 4.43031e-006 -5.85784 5.26508 1.00714 1.04291e-006 8.54824e-007 3 -8.02942 -4.95144 -0.697677 174.907 -0.896402 1.43608 180 7.0154e-015 178.893 176.486 5.99443 179.734 -1.98014e-006 1.23272e-006 0.0712731 -18.8878 68.2704 19.7629 8.13649 25.2327 -3.48774 -176.592 -2.27454 1.35963 4.54188e-006 -4.6773e-006 -1.14868 -3.52399 -6.66209 0.416691 1.50596e-006 2.18708e-006 -0.0810011 17.9245 66.909 -18.6641 -8.13649 25.2327 3.48774 
40.1797 98.8866 4.43661 1.21922 -2.52136 1.39897 0.0828895 -1.47298 0.0603879 0.155676 1.06925 0.112905 0.154435 2.71431 0.110484 -3.34485 23.6705 0.288347 0.555108 -6.89538 -0.808735 72.317 -1.28689 -2.18621 97.9748 23.2381 31.3808 -1.29356e-006 1.38983e-006 2.77583e-006 1.21501 0.00582377 0.718372 2.85801e-006 3.03382e-006 -3.08478 8.03009 -4.95138 0.697641 -67.3729 1.46273 0.282832 -100.605 12.2017 -21.6566 -5.6188e-006 -3.21193e-006 4.43031e-006 -5.71701 5.18451 0.996681 1.04291e-006 8.54824e-007 3 -8.02942 -4.95144 -0.697677 174.907 -0.909795 1.44035 180 7.0154e-015 178.893 176.48 5.98367 179.734 -1.98014e-006 1.23272e-006 0.0712731 -18.8828 68.2647 19.7576 8.13649 25.2327 -3.48774 -176.589 -2.26746 1.35551 4.54188e-006 -4.6773e-006 -1.14868 -3.52543 -6.6838 0.415979 1.50596e-006 2.18708e-006 -0.0810011 17.9285 66.9142 -18.6684 -8.13649 25.2327 3.48774 
40.1819 98.897 4.42711 1.21855 -2.52456 1.4111 0.0833207 -1.47236 0.0592697 0.15741 1.06953 0.110731 0.156196 2.7146 0.10827 -3.36216 23.6769 0.288932 0.567709 -6.90825 -0.812353 72.283 -1.30455 -2.19118 97.9754 23.2155 31.561 -1.29356e-006 1.38983e-006 2.77583e-006 1.04733 0.00499961 0.746491 2.85801e-006 3.03382e-006 -3.08477 8.03009 -4.95138 0.697641 -67.3933 1.43464 0.299866 -100.58 12.2093 -21.8408 -5.6188e-006 -3.21193e-006 4.43031e-006 -5.57578 5.10434 0.986209 1.04291e-006 8.54824e-007 3 -8.02942 -4.95144 -0.697677 174.908 -0.923558 1.44472 180 7.0154e-015 178.893 176.473 5.97244 179.734 -1.98014e-006 1.23272e-006 0.0712731 -18.8778 68.2588 19.7522 8.13649 25.2327 -3.48774 -176.587 -2.26007 1.35115 4.54188e-006 -4.6773e-006 -1.14868 -3.52699 -6.70634 0.415206 1.50596e-006 2.18708e-006 -0.0810011 17.9326 66.9196 -18.6729 -8.13649 25.2327 3.48774 
40.1785 98.8832 4.43286 1.21782 -2.52783 1.42329 0.0837539 -1.4717 0.0580991 0.159187 1.0699 0.108486 0.158001 2.71497 0.105984 -3.37975 23.6822 0.289601 0.580564 -6.92037 -0.815916 72.2483 -1.32238 -2.19617 97.9785 23.1927 31.7402 -1.29356e-006 1.38983e-006 2.77583e-006 0.879656 0.00418795 0.774503 2.85801e-006 3.03382e-006 -3.08475 8.03009 -4.95138 0.697641 -67.4139 1.40594 0.317237 -100.556 12.217 -22.0249 -5.6188e-006 -3.21193e-006 4.43031e-006 -5.43425 5.02445 0.975733 1.04291e-006 8.54824e-007 3 -8.02942 -4.95144 -0.697677 174.909 -0.937581 1.44917 180 7.0154e-015 178.893 176.466 5.96087 179.734 -1.98014e-006 1.23272e-006 0.0712731 -18.8726 68.2528 19.7466 8.13649 25.2327 -3.48774 -176.584 -2.25245 1.34663 4.54188e-006 -4.6773e-006 -1.14868 -3.52863 -6.72947 0.414392 1.50596e-006 2.18708e-006 -0.0810011 17.9368 66.9251 -18.6774 -8.13649 25.2327 3.48774 
40.1782 98.8937 4.46126 1.21705 -2.53114 1.43552 0.0841882 -1.47101 0.0568985 0.16099 1.07031 0.106202 0.159833 2.71538 0.103657 -3.39748 23.6869 0.290316 0.593563 -6.93205 -0.819448 72.2132 -1.3403 -2.20116 97.9832 23.1696 31.9189 -1.29356e-006 1.38983e-006 2.77583e-006 0.71198 0.00338344 0.802454 2.85801e-006 3.03382e-006 -3.08473 8.03009 -4.95138 0.697641 -67.4347 1.3769 0.334799 -100.532 12.2248 -22.2092 -5.6188e-006 -3.21193e-006 4.43031e-006 -5.29258 4.94473 0.965255 1.04291e-006 8.54824e-007 3 -8.02942 -4.95144 -0.697677 174.909 -0.951752 1.45367 180 7.0154e-015 178.893 176.459 5.94914 179.734 -1.98014e-006 1.23272e-006 0.0712731 -18.8674 68.2467 19.741 8.13649 25.2327 -3.48774 -176.581 -2.24471 1.34201 4.54188e-006 -4.6773e-006 -1.14868 -3.53032 -6.75293 0.413553 1.50596e-006 2.18708e-006 -0.0810011 17.941 66.9306 -18.682 -8.13649 25.2327 3.48774 
40.1835 98.8831 4.45983 1.21628 -2.53447 1.44776 0.0846228 -1.47031 0.0556904 0.162798 1.07073 0.103907 0.16167 2.71579 0.10132 -3.41525 23.6915 0.291044 0.606598 -6.94363 -0.822972 72.178 -1.35825 -2.20616 97.9882 23.1462 32.0974 -1.29356e-006 1.38983e-006 2.77583e-006 0.544304 0.00258071 0.830389 2.85801e-006 3.03382e-006 -3.08471 8.03009 -4.95138 0.697641 -67.4554 1.34778 0.352408 -100.509 12.2325 -22.3934 -5.6188e-006 -3.21193e-006 4.43031e-006 -5.1509 4.86504 0.95478 1.04291e-006 8.54824e-007 3 -8.02942 -4.95144 -0.697677 174.91 -0.96596 1.45817 180 7.0154e-015 178.893 176.453 5.93734 179.734 -1.98014e-006 1.23272e-006 0.0712731 -18.8621 68.2405 19.7353 8.13649 25.2327 -3.48774 -176.578 -2.23693 1.33736 4.54188e-006 -4.6773e-006 -1.14868 -3.53202 -6.77648 0.412707 1.50596e-006 2.18708e-006 -0.0810011 17.9452 66.9362 -18.6866 -8.13649 25.2327 3.48774 
40.1867 98.887 4.47543 1.21552 -2.53777 1.45999 0.0850569 -1.46963 0.0544973 0.164595 1.07112 0.101632 0.163496 2.71619 0.0990038 -3.43295 23.6964 0.291748 0.619558 -6.95542 -0.826512 72.143 -1.37615 -2.21115 97.9926 23.1226 32.276 -1.29356e-006 1.38983e-006 2.77583e-006 0.376629 0.00177443 0.858355 2.85801e-006 3.03382e-006 -3.08469 8.03009 -4.95138 0.697641 -67.476 1.31883 0.369921 -100.485 12.2399 -22.5776 -5.6188e-006 -3.21193e-006 4.43031e-006 -5.00933 4.78528 0.944312 1.04291e-006 8.54824e-007 3 -8.02942 -4.95144 -0.697677 174.91 -0.980093 1.46265 180 7.0154e-015 178.893 176.446 5.92564 179.733 -1.98014e-006 1.23272e-006 0.0712731 -18.8569 68.2345 19.7297 8.13649 25.2327 -3.48774 -176.575 -2.22922 1.33276 4.54188e-006 -4.6773e-006 -1.14868 -3.53369 -6.79985 0.411874 1.50596e-006 2.18708e-006 -0.0810011 17.9494 66.9417 -18.6911 -8.13649 25.2327 3.48774 
40.184 98.88 4.48008 1.21481 -2.54102 1.47216 0.0854897 -1.46898 0.0533416 0.16636 1.07147 0.0994071 0.165289 2.71653 0.0967382 -3.45045 23.702 0.292393 0.632334 -6.96775 -0.830091 72.1085 -1.39393 -2.21614 97.9952 23.0988 32.4552 -1.29356e-006 1.38983e-006 2.77583e-006 0.208957 0.000959247 0.886398 2.85801e-006 3.03382e-006 -3.08467 8.03009 -4.95138 0.697641 -67.4965 1.2903 0.387194 -100.46 12.2468 -22.7618 -5.6188e-006 -3.21193e-006 4.43031e-006 -4.86802 4.70531 0.933856 1.04291e-006 8.54824e-007 3 -8.02942 -4.95144 -0.697677 174.911 -0.994042 1.46708 180 7.0154e-015 178.893 176.439 5.91417 179.733 -1.98014e-006 1.23272e-006 0.0712731 -18.8518 68.2285 19.7242 8.13649 25.2327 -3.48774 -176.572 -2.22167 1.32828 4.54188e-006 -4.6773e-006 -1.14868 -3.53531 -6.82281 0.411072 1.50596e-006 2.18708e-006 -0.0810011 17.9536 66.9472 -18.6957 -8.13649 25.2327 3.48774 
40.1844 98.8809 4.46916 1.21418 -2.54419 1.48426 0.0859203 -1.46838 0.0522459 0.168075 1.07172 0.097263 0.167031 2.71679 0.0945541 -3.46765 23.7088 0.292943 0.644815 -6.98094 -0.833734 72.0748 -1.41151 -2.22111 97.995 23.0746 32.6353 -1.29356e-006 1.38983e-006 2.77583e-006 0.0412872 0.000129807 0.914562 2.85801e-006 3.03382e-006 -3.08466 8.03009 -4.95138 0.697641 -67.5168 1.26247 0.404083 -100.434 12.2531 -22.946 -5.6188e-006 -3.21193e-006 4.43031e-006 -4.72709 4.62501 0.923415 1.04291e-006 8.54824e-007 3 -8.02942 -4.95144 -0.697677 174.912 -1.00769 1.47143 180 7.0154e-015 178.893 176.433 5.90307 179.733 -1.98014e-006 1.23272e-006 0.0712731 -18.8468 68.2226 19.7188 8.13649 25.2327 -3.48774 -176.569 -2.21437 1.324 4.54188e-006 -4.6773e-006 -1.14868 -3.53684 -6.84511 0.410317 1.50596e-006 2.18708e-006 -0.0810011 17.9576 66.9525 -18.7001 -8.13649 25.2327 3.48774 
40.1895 98.8807 4.48121 1.21365 -2.54725 1.49624 0.0863479 -1.46785 0.0512326 0.169721 1.07186 0.0952293 0.168702 2.71693 0.092482 -3.48443 23.7172 0.293362 0.656893 -6.99531 -0.837463 72.0422 -1.42882 -2.22606 97.9909 23.0501 32.8167 -1.29356e-006 1.38983e-006 2.77583e-006 -0.126378 -0.000719237 0.942895 2.85801e-006 3.03382e-006 -3.08465 8.03009 -4.95138 0.697641 -67.5367 1.23558 0.420442 -100.406 12.2586 -23.1301 -5.6188e-006 -3.21193e-006 4.43031e-006 -4.58668 4.54427 0.912994 1.04291e-006 8.54824e-007 3 -8.02942 -4.95144 -0.697677 174.912 -1.02094 1.47565 180 7.0154e-015 178.893 176.427 5.89251 179.733 -1.98014e-006 1.23272e-006 0.0712731 -18.842 68.217 19.7136 8.13649 25.2327 -3.48774 -176.566 -2.20741 1.31998 4.54188e-006 -4.6773e-006 -1.14868 -3.53824 -6.86648 0.409629 1.50596e-006 2.18708e-006 -0.0810011 17.9616 66.9577 -18.7044 -8.13649 25.2327 3.48774 
40.1865 98.8804 4.49575 1.21324 -2.55017 1.50809 0.0867717 -1.46741 0.0503242 0.17128 1.07185 0.0933364 0.170285 2.71692 0.0905525 -3.50067 23.7277 0.293615 0.668456 -7.0112 -0.841303 72.0111 -1.44579 -2.231 97.9818 23.0254 32.9998 -1.29356e-006 1.38983e-006 2.77583e-006 -0.294039 -0.00159323 0.971442 2.85801e-006 3.03382e-006 -3.08465 8.03009 -4.95138 0.697641 -67.5562 1.2099 0.436129 -100.376 12.2633 -23.3142 -5.6188e-006 -3.21193e-006 4.43031e-006 -4.44692 4.46296 0.902597 1.04291e-006 8.54824e-007 3 -8.02942 -4.95144 -0.697677 174.912 -1.03366 1.47973 180 7.0154e-015 178.893 176.421 5.88261 179.733 -1.98014e-006 1.23272e-006 0.0712731 -18.8374 68.2116 19.7087 8.13649 25.2327 -3.48774 -176.564 -2.20089 1.3163 4.54188e-006 -4.6773e-006 -1.14868 -3.53948 -6.88668 0.409026 1.50596e-006 2.18708e-006 -0.0810011 17.9654 66.9627 -18.7085 -8.13649 25.2327 3.48774 
40.1816 98.8805 4.4979 1.21299 -2.55291 1.51977 0.0871909 -1.46708 0.0495431 0.172733 1.07166 0.0916143 0.171758 2.71673 0.0887962 -3.51626 23.7408 0.293666 0.679396 -7.02892 -0.845277 71.9817 -1.46234 -2.23591 97.9666 23.0002 33.1849 -1.29356e-006 1.38983e-006 2.77583e-006 -0.461695 -0.00249753 1.00025 2.85801e-006 3.03382e-006 -3.08465 8.03009 -4.95138 0.697641 -67.5752 1.18567 0.451 -100.343 12.2668 -23.4982 -5.6188e-006 -3.21193e-006 4.43031e-006 -4.30795 4.38095 0.892228 1.04291e-006 8.54824e-007 3 -8.02942 -4.95144 -0.697677 174.913 -1.04576 1.48362 180 7.0154e-015 178.893 176.415 5.8735 179.733 -1.98014e-006 1.23272e-006 0.0712731 -18.833 68.2065 19.704 8.13649 25.2327 -3.48774 -176.562 -2.19491 1.31302 4.54188e-006 -4.6773e-006 -1.14868 -3.54053 -6.90546 0.408525 1.50596e-006 2.18708e-006 -0.0810011 17.969 66.9675 -18.7125 -8.13649 25.2327 3.48774 
